<svg xmlns="http://www.w3.org/2000/svg" viewBox="0 0 480 480" role="img" aria-labelledby="title desc"><title id="title">Lamalo Bomber Jacket — Olive</title><desc id="desc">Olive bomber jacket with ribbed collar, cuffs and hem.</desc><defs><linearGradient id="bg" x1="0" y1="0" x2="1" y2="1"><stop stop-color="#eee4d1"/><stop offset="1" stop-color="#bba982"/></linearGradient><linearGradient id="cloth" x1="0" y1="0" x2="1" y2="1"><stop stop-color="#7b8054"/><stop offset=".55" stop-color="#4f5635"/><stop offset="1" stop-color="#303721"/></linearGradient><filter id="shadow" x="-30%" y="-30%" width="160%" height="170%"><feDropShadow dx="0" dy="18" stdDeviation="14" flood-color="#2d251b" flood-opacity=".32"/></filter></defs><rect width="480" height="480" rx="32" fill="url(#bg)"/><ellipse cx="240" cy="414" rx="132" ry="24" fill="#6c5a43" opacity=".23"/><g filter="url(#shadow)"><path d="M164 112 103 148 72 289l65 17 24-88 10 166c1 18 15 32 33 32h72c18 0 32-14 33-32l10-166 24 88 65-17-31-141-61-36-34 31h-84l-34-31Z" fill="url(#cloth)" stroke="#333a25" stroke-width="3"/><path d="M196 111c5 22 20 34 44 34s39-12 44-34" fill="#3c4328" stroke="#92976c" stroke-width="4"/><path d="M239 145v235" stroke="#c5ba89" stroke-width="4" opacity=".8"/><path d="M176 379h128" stroke="#303721" stroke-width="17" stroke-linecap="round"/><path d="M89 287l54 14M337 301l54-14" stroke="#303721" stroke-width="16" stroke-linecap="round"/><path d="M176 254h40v48h-40M304 254h-40v48h40" fill="none" stroke="#b5aa7a" stroke-width="3" opacity=".75"/></g></svg>