<svg xmlns="http://www.w3.org/2000/svg" viewBox="0 0 480 480" role="img" aria-labelledby="title desc"><title id="title">Lamalo Classic Polo — White</title><desc id="desc">White cotton-pique polo shirt.</desc><defs><linearGradient id="bg" x1="0" y1="0" x2="1" y2="1"><stop stop-color="#d7c39b"/><stop offset="1" stop-color="#9f8964"/></linearGradient><linearGradient id="cloth" x1="0" y1="0" x2="1" y2="1"><stop stop-color="#fffdf7"/><stop offset=".55" stop-color="#ece8df"/><stop offset="1" stop-color="#cfc9bd"/></linearGradient><filter id="shadow" x="-30%" y="-30%" width="160%" height="170%"><feDropShadow dx="0" dy="18" stdDeviation="14" flood-color="#2d251b" flood-opacity=".32"/></filter></defs><rect width="480" height="480" rx="32" fill="url(#bg)"/><ellipse cx="240" cy="411" rx="126" ry="23" fill="#5e4d36" opacity=".25"/><g filter="url(#shadow)"><path d="M165 101 111 132 76 226l67 25 29-66v198c0 18 14 33 33 33h70c19 0 33-15 33-33V185l29 66 67-25-35-94-54-31-31 32h-88Z" fill="url(#cloth)" stroke="#bdb6aa" stroke-width="3"/><path d="m195 101 45 32-28 42-42-48M285 101l-45 32 28 42 42-48" fill="#f7f4ec" stroke="#aaa397" stroke-width="3"/><path d="M240 133v86" stroke="#a69e91" stroke-width="4"/><circle cx="251" cy="158" r="5" fill="#a58b5c"/><circle cx="251" cy="184" r="5" fill="#a58b5c"/><path d="M188 245c33 8 71 8 104 0M188 304c33 7 71 7 104 0" fill="none" stroke="#c8c2b8" stroke-width="4" opacity=".75"/></g></svg>