<svg xmlns="http://www.w3.org/2000/svg" viewBox="0 0 480 480" role="img" aria-labelledby="title desc"><title id="title">Lamalo Premium Tee — Black</title><desc id="desc">Black premium crew-neck T-shirt on a warm studio background.</desc><defs><linearGradient id="bg" x1="0" y1="0" x2="1" y2="1"><stop stop-color="#efe4d0"/><stop offset="1" stop-color="#c9b897"/></linearGradient><linearGradient id="cloth" x1="0" y1="0" x2="1" y2="1"><stop stop-color="#29292d"/><stop offset=".48" stop-color="#0e0e10"/><stop offset="1" stop-color="#343439"/></linearGradient><filter id="shadow" x="-30%" y="-30%" width="160%" height="170%"><feDropShadow dx="0" dy="18" stdDeviation="14" flood-color="#2d251b" flood-opacity=".32"/></filter></defs><rect width="480" height="480" rx="32" fill="url(#bg)"/><ellipse cx="240" cy="410" rx="126" ry="24" fill="#6c5a43" opacity=".23"/><g filter="url(#shadow)"><path d="M166 104 117 135 78 221l62 29 30-55v188c0 18 14 33 33 33h74c19 0 33-15 33-33V195l30 55 62-29-39-86-49-31c-13 25-39 42-74 42s-61-17-74-42Z" fill="url(#cloth)" stroke="#4e4e54" stroke-width="3"/><path d="M193 108c8 18 24 28 47 28s39-10 47-28" fill="none" stroke="#77777e" stroke-width="7" stroke-linecap="round"/><path d="M185 196c34 11 76 11 110 0M185 250c34 9 76 9 110 0M185 304c34 7 76 7 110 0" fill="none" stroke="#8d8d93" stroke-opacity=".13" stroke-width="5" stroke-linecap="round"/></g></svg>