<svg xmlns="http://www.w3.org/2000/svg" viewBox="0 0 480 480" role="img" aria-labelledby="title desc"><title id="title">Lamalo Satin Slip Dress — Champagne</title><desc id="desc">Champagne satin slip dress with fine straps.</desc><defs><linearGradient id="bg" x1="0" y1="0" x2="1" y2="1"><stop stop-color="#e7dcc8"/><stop offset="1" stop-color="#b59c75"/></linearGradient><linearGradient id="cloth" x1="0" y1="0" x2="1" y2="1"><stop stop-color="#f8e7c4"/><stop offset=".45" stop-color="#d9b97b"/><stop offset="1" stop-color="#9e7742"/></linearGradient><filter id="shadow" x="-30%" y="-30%" width="160%" height="170%"><feDropShadow dx="0" dy="18" stdDeviation="14" flood-color="#2d251b" flood-opacity=".3"/></filter></defs><rect width="480" height="480" rx="32" fill="url(#bg)"/><ellipse cx="240" cy="424" rx="118" ry="22" fill="#5f4930" opacity=".22"/><g filter="url(#shadow)"><path d="M190 105h100l-9 72 63 226c-67 19-141 19-208 0l63-226Z" fill="url(#cloth)" stroke="#b68f58" stroke-width="3"/><path d="M199 105 178 54M281 105l21-51" stroke="#b68f58" stroke-width="6" stroke-linecap="round"/><path d="M190 105c12 30 28 45 50 45s38-15 50-45" fill="#ecd3a2" stroke="#b68f58" stroke-width="3"/><path d="M184 224c34 21 73 25 116 11M164 310c49 24 100 26 153 7" fill="none" stroke="#fff4d2" stroke-width="5" opacity=".36"/></g></svg>