<svg xmlns="http://www.w3.org/2000/svg" viewBox="0 0 480 480" role="img" aria-labelledby="title desc"><title id="title">Lamalo Pure Silk Blouse — White</title><desc id="desc">White silk blouse with a softly draped neckline.</desc><defs><linearGradient id="bg" x1="0" y1="0" x2="1" y2="1"><stop stop-color="#d5bd91"/><stop offset="1" stop-color="#9c8057"/></linearGradient><linearGradient id="cloth" x1="0" y1="0" x2="1" y2="1"><stop stop-color="#fffef9"/><stop offset=".45" stop-color="#eee8dd"/><stop offset="1" stop-color="#cfc5b7"/></linearGradient><filter id="shadow" x="-30%" y="-30%" width="160%" height="170%"><feDropShadow dx="0" dy="18" stdDeviation="14" flood-color="#2d251b" flood-opacity=".3"/></filter></defs><rect width="480" height="480" rx="32" fill="url(#bg)"/><ellipse cx="240" cy="414" rx="125" ry="23" fill="#5f4930" opacity=".25"/><g filter="url(#shadow)"><path d="M172 102 114 135 78 313l64 15 31-112 7 169c1 18 15 31 33 31h54c18 0 32-13 33-31l7-169 31 112 64-15-36-178-58-33c-17 24-39 36-68 36s-51-12-68-36Z" fill="url(#cloth)" stroke="#c7bcad" stroke-width="3"/><path d="M180 105c14 35 34 53 60 53s46-18 60-53c-2 46-19 75-60 75s-58-29-60-75Z" fill="#e5ddd1" stroke="#b8ac9d" stroke-width="3"/><path d="M191 217c18 18 41 27 69 27M188 278c31 17 66 20 103 8M188 337c29 12 65 12 104 0" fill="none" stroke="#bab0a3" stroke-width="4" opacity=".55"/></g></svg>