<svg xmlns="http://www.w3.org/2000/svg" viewBox="0 0 480 480" role="img" aria-labelledby="title desc"><title id="title">Lamalo Straight Denim — Indigo</title><desc id="desc">Indigo straight-leg denim jeans.</desc><defs><linearGradient id="bg" x1="0" y1="0" x2="1" y2="1"><stop stop-color="#efe5d2"/><stop offset="1" stop-color="#c2ae86"/></linearGradient><linearGradient id="cloth" x1="0" y1="0" x2="1" y2="1"><stop stop-color="#3c6291"/><stop offset=".5" stop-color="#1d416d"/><stop offset="1" stop-color="#102946"/></linearGradient><filter id="shadow" x="-30%" y="-30%" width="160%" height="170%"><feDropShadow dx="0" dy="18" stdDeviation="14" flood-color="#2d251b" flood-opacity=".3"/></filter></defs><rect width="480" height="480" rx="32" fill="url(#bg)"/><ellipse cx="240" cy="421" rx="115" ry="22" fill="#6c5a43" opacity=".22"/><g filter="url(#shadow)"><path d="M151 77h178l-12 136-19 200h-73l15-204-15 204h-73l-19-200Z" fill="url(#cloth)" stroke="#5d80a9" stroke-width="3"/><path d="M151 111h178M240 111v98" stroke="#d1b477" stroke-width="4" opacity=".8"/><path d="M170 121c4 35 23 51 57 49M310 121c-4 35-23 51-57 49" fill="none" stroke="#7d9abb" stroke-width="4"/><path d="M156 197h60v55h-56M324 197h-60v55h56" fill="none" stroke="#7291b5" stroke-width="3"/><path d="M152 404h73M255 404h73" stroke="#d1b477" stroke-width="4"/></g></svg>