<svg xmlns="http://www.w3.org/2000/svg" viewBox="0 0 480 480" role="img" aria-labelledby="title desc"><title id="title">Lamalo Structured Blazer — Black</title><desc id="desc">Black structured blazer with defined shoulders.</desc><defs><linearGradient id="bg" x1="0" y1="0" x2="1" y2="1"><stop stop-color="#efe4d1"/><stop offset="1" stop-color="#bda77e"/></linearGradient><linearGradient id="cloth" x1="0" y1="0" x2="1" y2="1"><stop stop-color="#333338"/><stop offset=".5" stop-color="#111114"/><stop offset="1" stop-color="#050506"/></linearGradient><filter id="shadow" x="-30%" y="-30%" width="160%" height="170%"><feDropShadow dx="0" dy="18" stdDeviation="14" flood-color="#2d251b" flood-opacity=".32"/></filter></defs><rect width="480" height="480" rx="32" fill="url(#bg)"/><ellipse cx="240" cy="414" rx="128" ry="23" fill="#66533b" opacity=".23"/><g filter="url(#shadow)"><path d="M157 99 86 130 71 332l68 7 31-147 8 202c1 16 14 28 30 28h64c16 0 29-12 30-28l8-202 31 147 68-7-15-202-71-31-43 38h-80Z" fill="url(#cloth)" stroke="#4b4b50" stroke-width="3"/><path d="m157 99 83 38-48 105-40-117M323 99l-83 38 48 105 40-117" fill="#1d1d21" stroke="#66666c" stroke-width="3"/><path d="M240 137v266" stroke="#8a8a90" stroke-width="3" opacity=".45"/><circle cx="252" cy="268" r="6" fill="#c6a85f"/><path d="M174 300h45v26h-45M306 300h-45v26h45" fill="none" stroke="#6e6e74" stroke-width="3"/></g></svg>