<svg xmlns="http://www.w3.org/2000/svg" viewBox="0 0 480 480" role="img" aria-labelledby="title desc"><title id="title">Lamalo Suit Jacket — Navy</title><desc id="desc">Tailored navy single-breasted suit jacket.</desc><defs><linearGradient id="bg" x1="0" y1="0" x2="1" y2="1"><stop stop-color="#eee5d3"/><stop offset="1" stop-color="#c7b38a"/></linearGradient><linearGradient id="cloth" x1="0" y1="0" x2="1" y2="1"><stop stop-color="#283b5f"/><stop offset=".5" stop-color="#14233e"/><stop offset="1" stop-color="#071426"/></linearGradient><filter id="shadow" x="-30%" y="-30%" width="160%" height="170%"><feDropShadow dx="0" dy="18" stdDeviation="14" flood-color="#2d251b" flood-opacity=".3"/></filter></defs><rect width="480" height="480" rx="32" fill="url(#bg)"/><ellipse cx="240" cy="415" rx="126" ry="23" fill="#6c5a43" opacity=".22"/><g filter="url(#shadow)"><path d="M167 94 103 135 78 326l69 8 26-125 8 184c1 15 13 27 28 27h62c15 0 27-12 28-27l8-184 26 125 69-8-25-191-64-41-43 39-43-39Z" fill="url(#cloth)" stroke="#40577d" stroke-width="3"/><path d="m169 95 71 38-39 89-48-100M311 95l-71 38 39 89 48-100" fill="#1c2d4a" stroke="#62769a" stroke-width="3"/><path d="M240 133v264" stroke="#8897ad" stroke-width="3" opacity=".55"/><circle cx="251" cy="254" r="6" fill="#c6a85f"/><circle cx="251" cy="290" r="6" fill="#c6a85f"/><path d="M180 282h43v28h-43M300 282h-43v28h43" fill="none" stroke="#7082a2" stroke-width="3"/><path d="M221 150h38l-8 25h-22Z" fill="#f2eadb"/></g></svg>