<svg xmlns="http://www.w3.org/2000/svg" viewBox="0 0 480 480" role="img" aria-labelledby="title desc"><title id="title">Lamalo Wide-Leg Formal Trouser — Camel</title><desc id="desc">Camel high-waist wide-leg formal trousers.</desc><defs><linearGradient id="bg" x1="0" y1="0" x2="1" y2="1"><stop stop-color="#eee4d1"/><stop offset="1" stop-color="#b49b72"/></linearGradient><linearGradient id="cloth" x1="0" y1="0" x2="1" y2="1"><stop stop-color="#d7b47c"/><stop offset=".5" stop-color="#b28752"/><stop offset="1" stop-color="#7f5b34"/></linearGradient><filter id="shadow" x="-30%" y="-30%" width="160%" height="170%"><feDropShadow dx="0" dy="18" stdDeviation="14" flood-color="#2d251b" flood-opacity=".3"/></filter></defs><rect width="480" height="480" rx="32" fill="url(#bg)"/><ellipse cx="240" cy="424" rx="118" ry="22" fill="#5f4930" opacity=".23"/><g filter="url(#shadow)"><path d="M145 72h190l-15 126 30 216h-99l-11-211-11 211h-99l30-216Z" fill="url(#cloth)" stroke="#8b6238" stroke-width="3"/><path d="M145 107h190M240 107v96" stroke="#ead2a6" stroke-width="4" opacity=".8"/><path d="M164 124c11 25 31 38 61 40M316 124c-11 25-31 38-61 40" fill="none" stroke="#9a7042" stroke-width="4"/><path d="M179 204 161 400M301 204l18 196" stroke="#ead2a6" stroke-width="4" opacity=".42"/><circle cx="240" cy="91" r="6" fill="#674728"/></g></svg>