<svg xmlns="http://www.w3.org/2000/svg" viewBox="0 0 480 480" role="img" aria-labelledby="title desc"><title id="title">Lamalo Wrap Midi Dress — Sage Green</title><desc id="desc">Sage-green wrap midi dress with a defined waist.</desc><defs><linearGradient id="bg" x1="0" y1="0" x2="1" y2="1"><stop stop-color="#eee4d2"/><stop offset="1" stop-color="#b9a47d"/></linearGradient><linearGradient id="cloth" x1="0" y1="0" x2="1" y2="1"><stop stop-color="#b8c39c"/><stop offset=".5" stop-color="#7f936b"/><stop offset="1" stop-color="#506345"/></linearGradient><filter id="shadow" x="-30%" y="-30%" width="160%" height="170%"><feDropShadow dx="0" dy="18" stdDeviation="14" flood-color="#2d251b" flood-opacity=".3"/></filter></defs><rect width="480" height="480" rx="32" fill="url(#bg)"/><ellipse cx="240" cy="424" rx="123" ry="22" fill="#5f4930" opacity=".23"/><g filter="url(#shadow)"><path d="M177 97 115 135 74 267l62 20 39-92 13 78-49 139c65 22 137 22 202 0l-49-139 13-78 39 92 62-20-41-132-62-38-63 45Z" fill="url(#cloth)" stroke="#607752" stroke-width="3"/><path d="m177 97 63 45-53 82M303 97l-63 45 53 82" fill="#93a67b" stroke="#607752" stroke-width="3"/><path d="M177 262h126" stroke="#d9c792" stroke-width="11" stroke-linecap="round"/><circle cx="302" cy="262" r="9" fill="#c5a45b"/><path d="M176 305c42 20 85 20 128 0M158 363c53 24 108 24 164 0" fill="none" stroke="#d7e0c9" stroke-width="4" opacity=".32"/></g></svg>