<svg xmlns="http://www.w3.org/2000/svg" width="1024" height="1024" viewBox="0 0 1024 1024" role="img" aria-label="Swappys by Virelle Studios">
  <defs>
    <linearGradient id="bg" x1="0" y1="0" x2="1" y2="1">
      <stop offset="0" stop-color="#2510ff"/>
      <stop offset="0.42" stop-color="#bc18ff"/>
      <stop offset="0.7" stop-color="#ff2e78"/>
      <stop offset="1" stop-color="#ffb000"/>
    </linearGradient>
    <linearGradient id="lens" x1="0" y1="0" x2="1" y2="1">
      <stop offset="0" stop-color="#0ff"/>
      <stop offset="0.5" stop-color="#4361ff"/>
      <stop offset="1" stop-color="#12002b"/>
    </linearGradient>
    <filter id="shadow" x="-20%" y="-20%" width="140%" height="140%">
      <feDropShadow dx="0" dy="24" stdDeviation="22" flood-color="#050016" flood-opacity="0.55"/>
    </filter>
  </defs>
  <rect x="72" y="72" width="880" height="880" rx="190" fill="url(#bg)"/>
  <g filter="url(#shadow)">
    <path d="M222 422h590" stroke="#071024" stroke-width="64" stroke-linecap="round" opacity="0.42"/>
    <path d="M228 396h236" stroke="#20f6ff" stroke-width="58" stroke-linecap="round"/>
    <path d="M198 396l92-72v144z" fill="#20f6ff"/>
    <path d="M560 396h236" stroke="#ff2e78" stroke-width="58" stroke-linecap="round"/>
    <path d="M826 396l-92-72v144z" fill="#ff2e78"/>
    <rect x="302" y="275" width="420" height="260" rx="72" fill="#f8fbff"/>
    <rect x="302" y="275" width="166" height="260" rx="72" fill="#ff356f" opacity="0.88"/>
    <rect x="556" y="275" width="166" height="260" rx="72" fill="#2fc8ff" opacity="0.9"/>
    <circle cx="512" cy="405" r="105" fill="#071024"/>
    <circle cx="512" cy="405" r="76" fill="url(#lens)"/>
    <circle cx="478" cy="365" r="24" fill="#fff" opacity="0.88"/>
    <circle cx="548" cy="443" r="16" fill="#b66cff" opacity="0.88"/>
    <rect x="615" y="310" width="64" height="38" rx="15" fill="#071024" opacity="0.9"/>
    <path d="M421 257c34-54 148-54 182 0" fill="none" stroke="#071024" stroke-width="26" stroke-linecap="round"/>
    <text x="512" y="682" text-anchor="middle" font-family="Arial Black, Arial, sans-serif" font-size="146" fill="#fff" stroke="#23006b" stroke-width="18" paint-order="stroke">Swappys</text>
    <text x="512" y="765" text-anchor="middle" font-family="Arial, sans-serif" font-size="48" font-weight="700" fill="#fff" stroke="#531050" stroke-width="6" paint-order="stroke">by Virelle Studios</text>
  </g>
</svg>
